HIERARCHY
ROOT hip
{
  OFFSET 0 0 0
  CHANNELS 6 Xposition Yposition Zposition Zrotation Yrotation Xrotation
  JOINT abdomen
  {
    OFFSET 0 20.6881 -0.73152
    CHANNELS 3 Zrotation Xrotation Yrotation
    JOINT chest
    {
      OFFSET 0 11.7043 -0.48768
      CHANNELS 3 Zrotation Xrotation Yrotation
      JOINT neck
      {
        OFFSET 0 22.1894 -2.19456
        CHANNELS 3 Zrotation Xrotation Yrotation
        JOINT head
        {
          OFFSET -0.24384 7.07133 1.2192
          CHANNELS 3 Zrotation Xrotation Yrotation
          JOINT leftEye
          {
            OFFSET 4.14528 8.04674 8.04672
            CHANNELS 3 Zrotation Xrotation Yrotation
            End Site
            {
              OFFSET 1 0 0
            }
          }
          JOINT rightEye
          {
            OFFSET -3.6576 8.04674 8.04672
            CHANNELS 3 Zrotation Xrotation Yrotation
            End Site
            {
              OFFSET 1 0 0
            }
          }
        }
      }
      JOINT rCollar
      {
        OFFSET -2.68224 19.2634 -4.8768
        CHANNELS 3 Zrotation Xrotation Yrotation
        JOINT rShldr
        {
          OFFSET -8.77824 -1.95073 1.46304
          CHANNELS 3 Zrotation Xrotation Yrotation
          JOINT rForeArm
          {
            OFFSET -28.1742 -1.7115 0.48768
            CHANNELS 3 Zrotation Xrotation Yrotation
            JOINT rHand
            {
              OFFSET -22.5879 0.773209 7.07136
              CHANNELS 3 Zrotation Xrotation Yrotation
              JOINT rThumb1
              {
                OFFSET -1.2192 -0.487915 3.41376
                CHANNELS 3 Zrotation Xrotation Yrotation
                JOINT rThumb2
                {
                  OFFSET -3.37035 -0.52449 3.41376
                  CHANNELS 3 Zrotation Xrotation Yrotation
                  End Site
                  {
                    OFFSET -1.78271 -1.18214 1.43049
                  }
                }
              }
              JOINT rIndex1
              {
                OFFSET -7.75947 0.938293 5.60832
                CHANNELS 3 Zrotation Xrotation Yrotation
                JOINT rIndex2
                {
                  OFFSET -2.54057 -0.884171 1.56538
                  CHANNELS 3 Zrotation Xrotation Yrotation
                  End Site
                  {
                    OFFSET -1.62519 -0.234802 1.16502
                  }
                }
              }
              JOINT rMid1
              {
                OFFSET -8.24714 1.18213 3.41376
                CHANNELS 3 Zrotation Xrotation Yrotation
                JOINT rMid2
                {
                  OFFSET -3.10165 -0.590103 1.0647
                  CHANNELS 3 Zrotation Xrotation Yrotation
                  End Site
                  {
                    OFFSET -2.48547 -0.328903 0.83742
                  }
                }
              }
              JOINT rRing1
              {
                OFFSET -8.82822 0.546677 1.51678
                CHANNELS 3 Zrotation Xrotation Yrotation
                JOINT rRing2
                {
                  OFFSET -2.60934 -0.819778 -0.0198488
                  CHANNELS 3 Zrotation Xrotation Yrotation
                  End Site
                  {
                    OFFSET -2.33842 -0.294052 0.168128
                  }
                }
              }
              JOINT rPinky1
              {
                OFFSET -8.27202 -0.0477905 -0.4584
                CHANNELS 3 Zrotation Xrotation Yrotation
                JOINT rPinky2
                {
                  OFFSET -1.82734 -0.647385 -0.700984
                  CHANNELS 3 Zrotation Xrotation Yrotation
                  End Site
                  {
                    OFFSET -1.69225 -0.51767 -0.607171
                  }
                }
              }
            }
          }
        }
      }
      JOINT lCollar
      {
        OFFSET 2.68224 19.2634 -4.8768
        CHANNELS 3 Zrotation Xrotation Yrotation
        JOINT lShldr
        {
          OFFSET 8.77824 -1.95073 1.46304
          CHANNELS 3 Zrotation Xrotation Yrotation
          JOINT lForeArm
          {
            OFFSET 28.1742 -1.7115 0.48768
            CHANNELS 3 Zrotation Xrotation Yrotation
            JOINT lHand
            {
              OFFSET 22.5879 0.773209 7.07136
              CHANNELS 3 Zrotation Xrotation Yrotation
              JOINT lThumb1
              {
                OFFSET 1.2192 -0.487915 3.41376
                CHANNELS 3 Zrotation Xrotation Yrotation
                JOINT lThumb2
                {
                  OFFSET 3.37035 -0.52449 3.41376
                  CHANNELS 3 Zrotation Xrotation Yrotation
                  End Site
                  {
                    OFFSET 1.78271 -1.18214 1.43049
                  }
                }
              }
              JOINT lIndex1
              {
                OFFSET 7.75947 0.938293 5.60832
                CHANNELS 3 Zrotation Xrotation Yrotation
                JOINT lIndex2
                {
                  OFFSET 2.54057 -0.884171 1.56538
                  CHANNELS 3 Zrotation Xrotation Yrotation
                  End Site
                  {
                    OFFSET 1.62519 -0.234802 1.16502
                  }
                }
              }
              JOINT lMid1
              {
                OFFSET 8.24714 1.18213 3.41376
                CHANNELS 3 Zrotation Xrotation Yrotation
                JOINT lMid2
                {
                  OFFSET 3.10165 -0.590103 1.0647
                  CHANNELS 3 Zrotation Xrotation Yrotation
                  End Site
                  {
                    OFFSET 2.48547 -0.328903 0.83742
                  }
                }
              }
              JOINT lRing1
              {
                OFFSET 8.82822 0.546677 1.51678
                CHANNELS 3 Zrotation Xrotation Yrotation
                JOINT lRing2
                {
                  OFFSET 2.60934 -0.819778 -0.0198488
                  CHANNELS 3 Zrotation Xrotation Yrotation
                  End Site
                  {
                    OFFSET 2.33842 -0.294052 0.168128
                  }
                }
              }
              JOINT lPinky1
              {
                OFFSET 8.27202 -0.0477905 -0.4584
                CHANNELS 3 Zrotation Xrotation Yrotation
                JOINT lPinky2
                {
                  OFFSET 1.82734 -0.647385 -0.700984
                  CHANNELS 3 Zrotation Xrotation Yrotation
                  End Site
                  {
                    OFFSET 1.69225 -0.51767 -0.607171
                  }
                }
              }
            }
          }
        }
      }
    }
  }
  JOINT rButtock
  {
    OFFSET -8.77824 4.35084 1.2192
    CHANNELS 3 Zrotation Xrotation Yrotation
    JOINT rThigh
    {
      OFFSET 0 -1.70687 -2.19456
      CHANNELS 3 Zrotation Xrotation Yrotation
      JOINT rShin
      {
        OFFSET 0 -36.8199 0.73152
        CHANNELS 3 Zrotation Xrotation Yrotation
        JOINT rFoot
        {
          OFFSET 0.73152 -45.1104 -5.12064
          CHANNELS 3 Zrotation Xrotation Yrotation
          End Site
          {
            OFFSET -1.1221 -3.69964 12.103
          }
        }
      }
    }
  }
  JOINT lButtock
  {
    OFFSET 8.77824 4.35084 1.2192
    CHANNELS 3 Zrotation Xrotation Yrotation
    JOINT lThigh
    {
      OFFSET 0 -1.70687 -2.19456
      CHANNELS 3 Zrotation Xrotation Yrotation
      JOINT lShin
      {
        OFFSET 0 -36.8199 0.73152
        CHANNELS 3 Zrotation Xrotation Yrotation
        JOINT lFoot
        {
          OFFSET -0.73152 -45.1104 -5.12064
          CHANNELS 3 Zrotation Xrotation Yrotation
          End Site
          {
            OFFSET 1.1221 -3.69964 12.103
          }
        }
      }
    }
  }
}
MOTION
Frames:	4
Frame Time:	0.00833333
47.8109 74.752 7.72748 208.535 -67.0185 558.377 -8.47768 22.0831 -2.7408 -3.61726 -1.73915 -1.30279 0.492744 9.14369 7.30014 7.91236 -53.0654 18.7716 -0.0 0.0 0.0 -0.0 0.0 0.0 3.18562e-13 -1.82276e-12 4.35974e-13 14.4772 -29.118 87.4569 -21.8787 -15.5717 43.4842 -2.39648 -39.5454 -6.66276 4.92733e-11 4.8225e-10 2.46951e-09 3.15392e-12 8.49212e-10 4.26573e-09 4.92751e-11 4.82257e-10 2.46949e-09 7.73091 5.47488 0.417314 4.92725e-11 4.82258e-10 2.4695e-09 2.90554 0.965183 0.102902 4.92797e-11 4.82259e-10 2.4695e-09 10.2786 0.731801 0.0259123 4.92758e-11 4.82258e-10 2.46951e-09 2.22167 -0.733487 -0.20892 3.18517e-13 -1.82274e-12 4.35899e-13 -18.2837 7.85995 -54.2946 6.35928 -2.20605 -11.1301 0.000881326 -1.3707 0.19267 -3.24503e-09 -1.77131e-09 -9.66512e-10 -5.60973e-09 -3.06428e-09 -1.66434e-09 -3.24503e-09 -1.77131e-09 -9.66503e-10 -7.73091 5.47488 -0.417314 -3.24503e-09 -1.77131e-09 -9.66505e-10 -2.90554 0.965183 -0.102902 -3.24503e-09 -1.77131e-09 -9.66512e-10 -10.2786 0.731801 -0.0259123 -3.24502e-09 -1.77131e-09 -9.66518e-10 -2.22167 -0.733487 0.20892 -2.03217e-16 0.0 -3.88251e-19 -29.682 -65.2034 -45.6173 -1.75576 66.8645 1.85339 5.11056 -13.6586 14.323 2.03217e-16 0.0 3.88251e-19 132.971 -75.4981 115.042 0.406931 40.7231 -0.181991 0.37266 -1.66524 5.55028
48.094 74.098 7.89897 208.498 -66.3429 558.739 -8.74638 22.2874 -2.79919 -3.55625 -1.72579 -1.34501 0.42173 9.25582 7.47183 7.8976 -53.2859 19.19 -0.0 0.0 0.0 -0.0 0.0 0.0 4.71499e-13 -2.50986e-12 4.26244e-13 14.2257 -30.0099 87.5322 -22.0766 -15.8728 43.9969 -2.51664 -40.3145 -6.84874 7.50675e-10 2.76435e-10 2.15818e-09 1.22241e-09 4.97e-10 3.75296e-09 7.50678e-10 2.76443e-10 2.15817e-09 7.73091 5.47488 0.417314 7.50674e-10 2.76443e-10 2.15818e-09 2.90554 0.965183 0.102902 7.50682e-10 2.76444e-10 2.15818e-09 10.2786 0.731801 0.0259123 7.50679e-10 2.76443e-10 2.15818e-09 2.22167 -0.733487 -0.20892 4.71467e-13 -2.50985e-12 4.26145e-13 -18.4599 7.12362 -54.3486 6.40536 -2.22756 -11.2125 0.00569967 -2.15511 0.303025 -3.10755e-09 -3.27431e-09 -1.07102e-09 -5.37506e-09 -5.66606e-09 -1.84544e-09 -3.10756e-09 -3.27431e-09 -1.07101e-09 -7.73091 5.47488 -0.417314 -3.10755e-09 -3.27431e-09 -1.07101e-09 -2.90554 0.965183 -0.102902 -3.10756e-09 -3.27431e-09 -1.07102e-09 -10.2786 0.731801 -0.0259123 -3.10755e-09 -3.27431e-09 -1.07102e-09 -2.22167 -0.733487 0.20892 -2.03217e-16 0.0 -3.88251e-19 -36.4302 -67.2197 -52.3914 -2.28239 70.8239 2.43417 5.19592 -11.4967 15.9166 2.03217e-16 0.0 3.88251e-19 137.747 -73.7588 120.554 0.471869 43.8175 -0.303989 0.120569 -1.48529 3.39515
48.3155 73.2945 8.0609 208.653 -65.675 558.748 -8.69289 22.5717 -2.87032 -3.64344 -1.75106 -1.38201 0.379513 9.43312 7.65921 7.73229 -53.5341 19.5698 -0.0 0.0 0.0 -0.0 0.0 0.0 4.22922e-13 -2.18606e-12 2.34941e-13 14.0329 -30.7159 87.5798 -22.3259 -16.2567 44.6742 -2.6255 -40.9907 -7.01536 1.34258e-09 -1.4569e-10 8.63218e-10 2.28463e-09 -2.35268e-10 1.53992e-09 1.34258e-09 -1.45683e-10 8.63201e-10 7.73091 5.47488 0.417314 1.34258e-09 -1.45683e-10 8.63216e-10 2.90554 0.965183 0.102902 1.34259e-09 -1.45682e-10 8.63211e-10 10.2786 0.731801 0.0259123 1.34258e-09 -1.45682e-10 8.63221e-10 2.22167 -0.733487 -0.20892 4.22872e-13 -2.18604e-12 2.34794e-13 -19.131 6.32143 -54.1394 6.50198 -2.27278 -11.3855 0.0104221 -2.63594 0.370856 -2.93843e-09 -3.9e-09 -4.11611e-10 -5.08504e-09 -6.75129e-09 -7.07386e-10 -2.93843e-09 -3.9e-09 -4.11601e-10 -7.73091 5.47488 -0.417314 -2.93843e-09 -3.90001e-09 -4.11606e-10 -2.90554 0.965183 -0.102902 -2.93844e-09 -3.90001e-09 -4.11609e-10 -10.2786 0.731801 -0.0259123 -2.93842e-09 -3.90001e-09 -4.11614e-10 -2.22167 -0.733487 0.20892 -2.03217e-16 0.0 -3.88251e-19 -43.7053 -68.7497 -59.7455 -3.08533 74.8196 3.30574 5.20268 -10.17 16.7804 2.03217e-16 0.0 3.88251e-19 142.092 -71.8213 125.464 0.575604 47.8205 -0.482481 -0.0941774 -1.77186 1.51713
48.4711 72.3476 8.20454 208.933 -64.9761 558.453 -8.44165 22.8853 -2.91063 -3.82589 -1.78749 -1.40527 0.347991 9.66232 7.85234 7.42389 -53.7909 19.8937 -0.0 0.0 0.0 -0.0 0.0 0.0 2.56492e-13 -1.26633e-12 -7.88678e-14 13.8386 -31.2864 87.5221 -22.6156 -16.7087 45.508 -2.72774 -41.6107 -7.17064 1.91366e-09 -7.25302e-10 -1.10696e-09 3.33288e-09 -1.24357e-09 -1.8382e-09 1.91367e-09 -7.25298e-10 -1.10697e-09 7.73091 5.47488 0.417314 1.91366e-09 -7.25298e-10 -1.10695e-09 2.90554 0.965183 0.102902 1.91367e-09 -7.25297e-10 -1.10696e-09 10.2786 0.731801 0.0259123 1.91366e-09 -7.25296e-10 -1.10694e-09 2.22167 -0.733487 -0.20892 2.56405e-13 -1.26632e-12 -7.9079e-14 -20.1062 5.50581 -53.7569 6.63684 -2.336 -11.6278 0.0145469 -2.962 0.416998 -2.68166e-09 -4.08972e-09 7.39161e-10 -4.64341e-09 -7.08317e-09 1.27905e-09 -2.68166e-09 -4.08972e-09 7.39172e-10 -7.73091 5.47488 -0.417314 -2.68166e-09 -4.08972e-09 7.39164e-10 -2.90554 0.965183 -0.102902 -2.68167e-09 -4.08972e-09 7.39166e-10 -10.2786 0.731801 -0.0259123 -2.68166e-09 -4.08972e-09 7.39162e-10 -2.22167 -0.733487 0.20892 -2.03217e-16 0.0 -3.88251e-19 -51.5993 -69.8729 -67.709 -4.54864 78.9316 4.85076 5.17976 -9.35843 17.0866 2.03217e-16 0.0 3.88251e-19 145.892 -69.6689 129.753 0.747772 52.5837 -0.738105 -0.325883 -2.4409 -0.224422
